<?xml version="1.0" standalone="no"?>
<!DOCTYPE svg PUBLIC "-//W3C//DTD SVG 20010904//EN"
 "http://www.w3.org/TR/2001/REC-SVG-20010904/DTD/svg10.dtd">
<svg version="1.0" xmlns="http://www.w3.org/2000/svg"
 width="1267.000000pt" height="1280.000000pt" viewBox="0 0 1267.000000 1280.000000"
 preserveAspectRatio="xMidYMid meet">
<g transform="translate(0.000000,1280.000000) scale(0.100000,-0.100000)"
fill="#000000" stroke="none">
<path d="M11989 12795 c-3 -2 -65 -9 -139 -15 -502 -38 -898 -152 -1205 -345
-187 -118 -268 -191 -489 -445 -1442 -1652 -3097 -3915 -4766 -6519 -69 -107
-147 -219 -174 -249 -99 -108 -201 -140 -267 -85 -100 85 -257 426 -462 1008
-119 340 -198 486 -311 579 -131 107 -271 128 -506 76 -402 -88 -922 -414
-1080 -676 -105 -175 -105 -325 0 -744 99 -394 385 -1271 568 -1745 202 -522
399 -867 557 -975 82 -56 164 -68 554 -80 635 -20 910 36 1121 226 25 22 196
269 434 628 1997 3000 4027 5705 6321 8421 242 286 330 398 405 508 54 81 120
214 120 242 0 30 -50 94 -93 119 -74 44 -272 76 -463 76 -66 0 -123 -2 -125
-5z"/>
<path d="M5850 12069 c-1257 -74 -2414 -491 -3406 -1229 -451 -336 -920 -804
-1254 -1254 -675 -909 -1079 -1979 -1160 -3071 -6 -82 -15 -191 -20 -242 -13
-119 -13 -328 0 -467 6 -61 17 -192 25 -290 80 -959 414 -1911 960 -2736 937
-1418 2438 -2392 4125 -2679 438 -75 1009 -115 1295 -92 77 6 201 16 275 22
2030 159 3846 1291 4870 3034 45 77 132 241 194 365 500 1007 700 2140 576
3270 -118 1077 -513 2066 -1180 2955 -54 72 -104 136 -111 142 -11 9 -65 -48
-269 -284 -140 -162 -267 -310 -283 -328 l-27 -33 58 -74 c587 -740 888 -1564
953 -2605 15 -248 7 -788 -15 -973 -72 -612 -224 -1136 -485 -1675 -573 -1184
-1593 -2113 -2846 -2594 -1305 -502 -2783 -474 -4065 77 -671 288 -1273 707
-1764 1230 -572 609 -976 1311 -1201 2088 -387 1338 -215 2757 483 3964 491
849 1242 1564 2119 2017 865 447 1779 646 2775 604 460 -20 744 -56 1073 -136
284 -70 582 -179 850 -311 82 -41 155 -74 161 -74 10 0 509 629 538 678 5 9
-49 40 -196 111 -683 332 -1402 522 -2203 581 -202 15 -664 20 -845 9z"/>
</g>
</svg>
